<svg width="62" height="32" viewBox="0 0 62 32" fill="none" xmlns="http://www.w3.org/2000/svg">
<path d="M56.0248 1.44724C59.0316 6.86374 60.7782 13.1959 61.4298 19.3452C61.7845 22.7071 62.47 27.5158 60.1689 29.7551C56.9895 32.847 58.7054 28.2325 38.2425 23.9639C36.3965 23.5798 37.4171 20.216 39.0653 20.3273C42.514 20.5603 45.9462 20.9638 49.3617 21.5378C38.5992 11.5424 24.2852 10.2345 11.6415 15.8104C10.0234 16.5175 4.21911 19.6959 2.61064 21.0793C0.674163 22.7481 -0.935876 19.7448 2.02081 17.4653C8.19401 9.84921 30.8575 -2.26117 50.0878 11.7774C54.6308 15.0939 54.4648 16.3028 53.8677 14.3093C53.2352 12.1942 51.864 8.49778 50.9681 6.43948C49.2928 2.59188 54.1763 -1.87334 56.0248 1.44724Z" fill="white"/>
</svg>
