<svg width="44" height="43" viewBox="0 0 44 43" fill="none" xmlns="http://www.w3.org/2000/svg">
<path d="M32.1713 26.3829L29.0035 18.9743C28.4267 17.6181 27.5664 16.8489 26.5847 16.7983C25.6131 16.7477 24.6719 17.4258 23.9533 18.7213L22.0304 22.1725C21.6256 22.9012 21.0487 23.3364 20.4212 23.3871C19.7836 23.4478 19.146 23.1138 18.6299 22.4559L18.4072 22.1725C17.6887 21.2718 16.7981 20.8366 15.8872 20.9277C14.9764 21.0187 14.1971 21.6462 13.6809 22.6685L11.93 26.1602C11.3026 27.4253 11.3633 28.8929 12.1021 30.0871C12.8409 31.2814 14.1262 32 15.533 32H28.4469C29.8031 32 31.0681 31.3219 31.8171 30.1883C32.5862 29.0548 32.7077 27.6277 32.1713 26.3829ZM16.9408 17.8418C17.848 17.8418 18.7181 17.4814 19.3596 16.8398C20.0011 16.1983 20.3615 15.3282 20.3615 14.4209C20.3615 13.5136 20.0011 12.6435 19.3596 12.002C18.7181 11.3604 17.848 11 16.9408 11C16.0335 11 15.1634 11.3604 14.5219 12.002C13.8804 12.6435 13.52 13.5136 13.52 14.4209C13.52 15.3282 13.8804 16.1983 14.5219 16.8398C15.1634 17.4814 16.0335 17.8418 16.9408 17.8418Z" fill="url(#paint0_linear_8_29)"/>
<rect x="2" y="1.5" width="40" height="40" rx="9.5" stroke="url(#paint1_linear_8_29)" stroke-width="3"/>
<defs>
<linearGradient id="paint0_linear_8_29" x1="22" y1="11" x2="22" y2="32" gradientUnits="userSpaceOnUse">
<stop stop-color="white"/>
<stop offset="1" stop-color="#D9D9D9"/>
</linearGradient>
<linearGradient id="paint1_linear_8_29" x1="22" y1="3" x2="22" y2="40" gradientUnits="userSpaceOnUse">
<stop stop-color="white"/>
<stop offset="1" stop-color="#F5F5F5"/>
</linearGradient>
</defs>
</svg>
