<svg width="37" height="55" viewBox="0 0 37 55" fill="none" xmlns="http://www.w3.org/2000/svg">
<path d="M13.992 49.563C13.992 50.7923 14.4803 51.9712 15.3495 52.8404C16.2187 53.7097 17.3977 54.198 18.627 54.198C19.8562 54.198 21.0352 53.7097 21.9044 52.8404C22.7736 51.9712 23.262 50.7923 23.262 49.563C23.262 48.9543 23.1421 48.3516 22.9091 47.7893C22.6762 47.2269 22.3348 46.716 21.9044 46.2856C21.474 45.8552 20.963 45.5137 20.4007 45.2808C19.8383 45.0479 19.2356 44.928 18.627 44.928C18.0183 44.928 17.4156 45.0479 16.8532 45.2808C16.2909 45.5137 15.7799 45.8552 15.3495 46.2856C14.9191 46.716 14.5777 47.2269 14.3448 47.7893C14.1118 48.3516 13.992 48.9543 13.992 49.563ZM26.7945 32.067C33.315 28.476 36.627 23.2695 36.627 16.596C36.627 5.1345 27.5865 0 18.627 0C9.90145 0 0.626953 6.3405 0.626953 18.0945C0.626953 19.288 1.10106 20.4326 1.94497 21.2765C2.78889 22.1204 3.93348 22.5945 5.12695 22.5945C6.32043 22.5945 7.46502 22.1204 8.30893 21.2765C9.15285 20.4326 9.62695 19.288 9.62695 18.0945C9.62695 11.844 14.2935 9 18.627 9C21.9885 9 27.627 9.9855 27.627 16.596C27.627 18.9405 27.0105 21.6765 22.4565 24.1875C19.3605 25.884 14.127 30.2895 14.127 36C14.127 37.1935 14.6011 38.3381 15.445 39.182C16.2889 40.0259 17.4335 40.5 18.627 40.5C19.8204 40.5 20.965 40.0259 21.8089 39.182C22.6528 38.3381 23.127 37.1935 23.127 36C23.127 35.163 24.9045 33.1065 26.7945 32.067Z" fill="black"/>
</svg>
